<svg version="1.0" xmlns="http://www.w3.org/2000/svg"
 width="187.000000pt" height="182.000000pt" viewBox="0 0 187.000000 182.000000"
 preserveAspectRatio="xMidYMid meet">

<g id="next" transform="translate(0.000000,182.000000) scale(0.100000,-0.100000)"
fill="#000000" stroke="none">
<path d="M777 1383 c-18 -18 2 -47 110 -155 l118 -118 -118 -118 c-64 -64
-117 -125 -117 -134 0 -10 9 -22 20 -28 17 -9 28 -4 73 37 121 109 237 229
237 244 0 9 -61 76 -136 148 -128 124 -164 148 -187 124z"/>
<path d="M722 510 l1 -75 7 65 c4 36 3 69 -2 75 -4 5 -7 -25 -6 -65z"/>
<path d="M820 525 c0 -30 -3 -55 -7 -55 -5 0 -21 19 -37 41 -15 22 -30 38 -33
35 -6 -6 69 -106 79 -106 4 0 8 32 8 70 0 39 -2 70 -5 70 -3 0 -5 -25 -5 -55z"/>
<path d="M1111 558 c-1 -9 -7 -19 -13 -21 -10 -4 -10 -6 0 -6 8 -1 12 -17 12
-46 0 -36 3 -45 18 -44 10 0 12 3 5 6 -8 2 -13 22 -13 44 0 24 5 39 13 39 8 0
9 3 1 8 -6 4 -14 14 -17 22 -4 12 -6 12 -6 -2z"/>
<path d="M868 516 c-14 -32 3 -76 29 -76 15 0 14 3 -5 16 -34 23 -27 34 23 34
42 0 44 1 36 23 -6 15 -18 23 -40 25 -25 3 -33 -2 -43 -22z m70 -3 c2 -9 -8
-13 -33 -13 -33 0 -36 2 -25 15 15 18 51 16 58 -2z"/>
<path d="M980 536 c0 -5 7 -18 17 -28 15 -17 15 -19 0 -36 -24 -26 -21 -39 3
-17 19 17 21 17 42 -1 l22 -19 -17 28 c-16 25 -16 29 0 55 l16 27 -23 -22 -23
-22 -18 22 c-10 12 -18 18 -19 13z"/>
<path d="M930 450 c-9 -6 -10 -10 -3 -10 6 0 15 5 18 10 8 12 4 12 -15 0z"/>
</g>
</svg>
